<svg width="100%" height="100%" viewBox="0 0 55 50" fill="none" xmlns="http://www.w3.org/2000/svg">
<path d="M52.6359 48.2958C52.8956 48.2958 53.1447 48.1926 53.3283 48.009C53.512 47.8254 53.6151 47.5763 53.6151 47.3166V15.9864C53.6148 15.4457 53.1766 15.0075 52.6359 15.0072H33.0231C32.4823 15.0072 32.0439 15.4456 32.0439 15.9864C32.0439 16.5272 32.4823 16.9656 33.0231 16.9656H51.6543V46.3374" fill="#1D1D1D"/>
<path d="M8.54883 47.3016C8.54883 47.8504 8.99358 48.2955 9.54243 48.2958H52.2702C52.8096 48.2825 53.24 47.8415 53.24 47.3019C53.24 46.7623 52.8096 46.3213 52.2702 46.308H10.536" fill="#1D1D1D"/>
<path d="M44.6936 26.9316H33.515C33.1718 26.9316 32.894 27.3768 32.894 27.9252C32.894 28.4736 33.1718 28.9188 33.515 28.9188H44.6936C45.0374 28.9188 45.3146 28.4736 45.3146 27.9252C45.3146 27.3768 45.0374 26.9316 44.6936 26.9316Z" fill="#1D1D1D"/>
<path d="M44.6936 30.906H33.515C33.1718 30.906 32.894 31.3506 32.894 31.9002C32.894 32.4498 33.1718 32.8938 33.515 32.8938H44.6936C45.0374 32.8938 45.3146 32.4492 45.3146 31.9002C45.3146 31.3512 45.0374 30.906 44.6936 30.906Z" fill="#1D1D1D"/>
<path d="M44.6936 34.881H33.515C33.1718 34.881 32.894 35.325 32.894 35.8746C32.894 36.4242 33.1718 36.8682 33.515 36.8682H44.6936C45.0374 36.8682 45.3146 36.4242 45.3146 35.8746C45.3146 35.325 45.0374 34.881 44.6936 34.881Z" fill="#1D1D1D"/>
<path fill-rule="evenodd" clip-rule="evenodd" d="M24.1678 24.9061C26.3763 25.4711 27.917 27.4666 27.9048 29.7462C27.9023 31.1318 27.318 32.4525 26.2944 33.3864C29.6683 34.7546 31.8775 38.0298 31.8822 41.6706C31.869 42.21 31.4279 42.6404 30.8883 42.6404C30.3487 42.6404 29.9077 42.21 29.8944 41.6706C29.8944 37.8292 26.7803 34.7151 22.9389 34.7151C19.0975 34.7151 15.9834 37.8292 15.9834 41.6706C15.9834 42.2195 15.5384 42.6645 14.9895 42.6645C14.4406 42.6645 13.9956 42.2195 13.9956 41.6706C14.0003 38.0298 16.2095 34.7546 19.5834 33.3864C17.901 31.8481 17.4814 29.3622 18.5655 27.3568C19.6496 25.3514 21.9593 24.341 24.1678 24.9061ZM22.9364 26.766C21.2903 26.7659 19.9557 28.1001 19.9554 29.7462C19.9571 31.3921 21.2909 32.7259 22.9368 32.7276C24.5829 32.7273 25.9171 31.3927 25.917 29.7466C25.9169 28.1005 24.5825 26.7661 22.9364 26.766Z" fill="#1D1D1D"/>
<path d="M18.4858 46.308H5.36316C4.62772 46.3082 3.92234 46.0161 3.40225 45.4961C2.88216 44.9762 2.58996 44.2708 2.58996 43.5354V22.059C2.61155 21.2372 3.22466 20.5517 4.03896 20.439C6.61155 20.1309 8.54899 17.9504 8.55216 15.3594V8.3406C8.55216 7.90683 8.9038 7.5552 9.33756 7.5552H13.7284C14.1622 7.5552 14.514 7.90674 14.5144 8.3406V15.3576C14.5175 17.9484 16.4546 20.1289 19.027 20.4372C19.8413 20.5499 20.4544 21.2354 20.476 22.0572V22.6662C20.476 23.1003 20.8279 23.4522 21.262 23.4522H21.6778C22.1117 23.4519 22.4634 23.1002 22.4638 22.6662V21.9708C22.4207 20.1433 21.0208 18.6353 19.2016 18.4566C17.655 18.2412 16.5034 16.9196 16.5016 15.3582V7.347C16.5016 6.91314 16.15 6.56133 15.7162 6.561H14.5162V5.5674H8.54916V6.561H7.34916C6.9153 6.56133 6.56376 6.91314 6.56376 7.347V14.6982C6.53093 16.671 5.02856 18.3079 3.06576 18.5094C1.65647 18.6969 0.603266 19.8981 0.601562 21.3198V43.5354C0.601562 44.7981 1.10327 46.0091 1.99628 46.9019C2.88928 47.7947 4.10042 48.2961 5.36316 48.2958H18.4858" fill="#1D1D1D"/>
<path d="M16.4984 7.55521H14.5112V2.91901H8.54904V7.55521H6.56304V2.91901C6.47978 1.73263 7.36511 0.699478 8.55024 0.600006H14.5124C15.6974 0.699789 16.5826 1.73274 16.4996 2.91901L16.4984 7.55521Z" fill="black"/>
</svg>
