<svg width="29" height="32" viewBox="0 0 29 32" fill="none" xmlns="http://www.w3.org/2000/svg">
<mask id="mask0_1_178" style="mask-type:alpha" maskUnits="userSpaceOnUse" x="0" y="0" width="29" height="32">
<path fill-rule="evenodd" clip-rule="evenodd" d="M0 0.193237H28.9366V31.8489H0V0.193237Z" fill="white"/>
</mask>
<g mask="url(#mask0_1_178)">
<path fill-rule="evenodd" clip-rule="evenodd" d="M1.71898 13.4496H27.2166V25.929C27.2166 28.2382 25.2818 30.1274 22.9168 30.1274H6.01876C3.65381 30.1274 1.71898 28.2382 1.71898 25.929V13.4496ZM6.01877 5.02135H7.13653V8.17003C7.13653 8.6319 7.52346 9.00974 7.99641 9.00974C8.46936 9.00974 8.85629 8.6319 8.85629 8.17003V5.02135H20.1217V8.17003C20.1217 8.6319 20.5086 9.00974 20.9816 9.00974C21.4545 9.00974 21.8415 8.6319 21.8415 8.17003V5.02135H22.9592C25.3242 5.02135 27.259 6.91056 27.259 9.21972V11.7702H1.71937V9.21972C1.71937 6.91056 3.654 5.02135 6.01896 5.02135H6.01877ZM6.01876 31.8487H22.9168C26.2277 31.8487 28.9362 29.2036 28.9362 25.1211L28.9366 8.36977C28.9366 5.98701 26.2277 3.34231 22.917 3.34231H21.7992V1.03314C21.7992 0.571272 21.4123 0.193624 20.9394 0.193624C20.4664 0.193624 20.0795 0.571272 20.0795 1.03314V3.34231L8.85707 3.34192V1.03276C8.85707 0.571079 8.47014 0.193237 7.99719 0.193237C7.52424 0.193237 7.13731 0.571079 7.13731 1.03276V3.34192H6.01954C2.70868 3.34192 4.19501e-08 5.98701 4.19501e-08 8.36938V25.0788C-0.00038922 29.2038 2.70829 31.8489 6.01935 31.8489L6.01876 31.8487Z" fill="#B62C34"/>
</g>
<path fill-rule="evenodd" clip-rule="evenodd" d="M18.6767 25.3436C19.6577 25.3436 20.362 24.6067 20.362 23.5506C20.362 22.47 19.6577 21.7578 18.6767 21.7578C17.6956 21.7578 17.0163 22.47 17.0163 23.5506C17.0163 24.6067 17.6956 25.3436 18.6767 25.3436ZM16.8707 15.6768H19.0432L12.0157 26.6038H9.84341L16.8707 15.6768ZM10.185 20.5016C11.1369 20.5016 11.8203 19.7867 11.8203 18.7619C11.8203 17.7136 11.1369 17.0222 10.185 17.0222C9.23324 17.0222 8.57422 17.7136 8.57422 18.7619C8.57422 19.7867 9.23324 20.5016 10.185 20.5016Z" fill="#B62C34"/>
</svg>
