<svg width="33" height="30" viewBox="0 0 33 30" fill="none" xmlns="http://www.w3.org/2000/svg">
<path fill-rule="evenodd" clip-rule="evenodd" d="M31.2532 28.5008H25.2999V15.369C25.2999 14.5617 25.9668 13.9053 26.788 13.9053H29.7643C30.586 13.9053 31.2527 14.5617 31.2527 15.369L31.2532 28.5008ZM1.4875 15.369C1.4875 14.5617 2.15498 13.9053 2.97555 13.9053H5.95192C6.77249 13.9053 7.43997 14.5617 7.43997 15.369V28.5008H1.48694L1.4875 15.369ZM8.92886 28.5005H23.8119V19.0691H8.92886V28.5005ZM5.95248 3.65918C5.95248 2.44882 6.9544 1.46345 8.18511 1.46345H24.5564C25.7871 1.46345 26.7888 2.44882 26.7888 3.65918V12.441C25.1471 12.441 23.8127 13.7542 23.8127 15.3682V17.6048L8.92969 17.6054V15.3687C8.92969 13.7542 7.59471 12.4415 5.95331 12.4415L5.95248 3.65918ZM29.7652 12.4415H28.2771V3.65918C28.2771 1.64155 26.6077 0 24.5564 0H8.18511C6.13384 0 4.46443 1.64155 4.46443 3.65918V12.441H2.97638C1.33442 12.441 0 13.7542 0 15.3682V29.232C0 29.6359 0.332773 29.964 0.744303 29.964H31.9984C32.4099 29.964 32.7427 29.6365 32.7427 29.232L32.7421 15.3682C32.7421 13.7536 31.4071 12.441 29.766 12.441L29.7652 12.4415Z" fill="#B62C34"/>
<path fill-rule="evenodd" clip-rule="evenodd" d="M16.3713 4.07847L17.9362 7.19684L21.4353 7.69674L18.9032 10.124L19.5011 13.5514L16.3713 11.933L13.2416 13.5514L13.8395 10.124L11.3074 7.69674L14.8065 7.19684L16.3713 4.07847Z" fill="#B62C34"/>
</svg>
