<svg width="37" height="39" viewBox="0 0 37 39" fill="none" xmlns="http://www.w3.org/2000/svg">
<mask id="mask0_1_2706" style="mask-type:alpha" maskUnits="userSpaceOnUse" x="0" y="0" width="37" height="39">
<path fill-rule="evenodd" clip-rule="evenodd" d="M0 0.356323H36.6771V38.3705H0V0.356323Z" fill="white"/>
</mask>
<g mask="url(#mask0_1_2706)">
<path fill-rule="evenodd" clip-rule="evenodd" d="M9.29899 5.48382V2.84493C9.29899 2.57356 9.40765 2.30825 9.59719 2.11629C9.78637 1.9247 10.0484 1.81466 10.316 1.81466H28.557C28.825 1.81466 29.0869 1.9247 29.2765 2.11629C29.4657 2.30825 29.574 2.57356 29.574 2.84493V5.48346C29.5726 6.17363 29.2737 6.8257 28.7532 7.27157C28.2328 7.71779 27.5485 7.90974 26.8761 7.79649C26.2038 7.68431 25.6165 7.28011 25.2656 6.68859C25.1362 6.47064 24.8995 6.33496 24.6481 6.33496C24.397 6.33496 24.1604 6.47064 24.0306 6.68966C23.6153 7.39514 22.8536 7.83318 22.0424 7.83318C21.2315 7.83318 20.4698 7.39514 20.0447 6.67434C19.9072 6.47064 19.68 6.3492 19.4367 6.3492C19.1933 6.3492 18.9658 6.47064 18.8188 6.68966C18.4035 7.39514 17.6418 7.83318 16.8306 7.83318C16.0197 7.83318 15.258 7.39514 14.8329 6.67434C14.6954 6.47064 14.4682 6.3492 14.2249 6.3492C13.9815 6.3492 13.754 6.47064 13.6074 6.68859C13.2564 7.28011 12.6692 7.68431 11.9968 7.79649C11.3241 7.90974 10.6402 7.71743 10.1197 7.27157C9.5993 6.82534 9.3004 6.17363 9.29899 5.48382ZM36.4339 27.8431C36.1143 27.1633 35.5559 26.6366 34.8582 26.357L34.8209 26.3431C34.0793 26.0572 33.2768 26.0657 32.5595 26.3681L32.077 26.5586L32.0004 26.4315C31.6874 25.9129 31.1828 25.4988 30.5786 25.2648C29.8381 24.9795 29.0353 24.9877 28.3175 25.2901L25.0124 26.612C24.8489 26.674 24.7237 26.7947 24.6565 26.9532C24.5911 27.1081 24.5901 27.2766 24.6541 27.4275C24.7627 27.6537 25.0134 27.8047 25.2895 27.8047C25.383 27.8047 25.484 27.7808 25.5912 27.7555L28.8689 26.4425C29.254 26.2904 29.6946 26.2901 30.0793 26.4422C30.3068 26.523 30.5076 26.6626 30.6873 26.867L30.8554 27.0579L23.6434 29.9222L23.6621 29.6423C23.6905 29.2139 23.628 28.8154 23.4767 28.4571C23.174 27.753 22.6208 27.2025 21.9196 26.9072L14.5466 23.8075C12.391 22.898 9.98963 22.8236 7.82031 23.5244L10.7615 9.19179C11.3681 9.33709 12.0004 9.32712 12.6073 9.15974C13.2188 8.99129 13.7727 8.67149 14.2252 8.22812C14.9222 8.90796 15.8555 9.29222 16.8306 9.29222C17.8061 9.29222 18.7397 8.90761 19.4367 8.22776C20.1336 8.90761 21.0669 9.29222 22.0424 9.29222C23.0175 9.29222 23.9508 8.90796 24.6474 8.22847C25.3398 8.90832 26.2678 9.29222 27.2397 9.29222H27.2545C27.6058 9.29187 27.9487 9.24023 28.2775 9.14621C28.173 9.3086 28.1361 9.50946 28.1772 9.69998L32.0471 25.4422H33.516L29.5912 9.42434C29.5599 9.23453 29.4541 9.06216 29.299 8.94998C29.2213 8.89407 29.1334 8.8549 29.0416 8.83389C29.3574 8.6601 29.6506 8.44001 29.9119 8.17577C30.6219 7.45675 31.0133 6.50091 31.0143 5.48417V2.84457C31.0133 2.1804 30.7576 1.55575 30.2942 1.08567C29.83 0.616295 29.2132 0.357035 28.557 0.356323H10.3156C9.65943 0.357035 9.04264 0.616295 8.57881 1.08567C8.11534 1.55575 7.85969 2.1804 7.85864 2.84493V5.48417C7.85934 6.71138 8.43604 7.84849 9.41046 8.56323L6.26602 24.029H6.57266C6.09899 24.2602 5.64079 24.5276 5.20756 24.8392L4.33864 25.4721C4.2662 25.4343 4.18532 25.4108 4.09811 25.4108H0.527473C0.235956 25.4108 0 25.6501 0 25.945C0 26.2402 0.235956 26.4792 0.527473 26.4792H3.54532V35.2231H1.6327C1.24624 35.2231 0.954725 35.4941 0.954725 35.8538C0.954725 36.2132 1.24624 36.4842 1.6327 36.4842H4.19481C4.58163 36.4842 4.87314 36.2132 4.87314 35.8538V26.6508L6.02866 25.8157C8.3098 24.1754 11.3639 23.8375 13.9981 24.9336L21.3447 28.0607C21.7505 28.2206 22.0578 28.5362 22.1837 28.924C22.3318 29.2584 22.3216 29.6847 22.1489 30.0764C21.9935 30.43 21.6862 30.7121 21.2835 30.8706C20.921 31.0141 20.48 31.0041 20.0742 30.8439L14.3768 28.4432C14.0385 28.2933 13.6215 28.4411 13.4629 28.7627C13.3936 28.9033 13.3848 29.0639 13.4389 29.2146C13.4991 29.383 13.6316 29.5226 13.8029 29.5981L19.4936 31.9959C20.2328 32.3072 21.036 32.3253 21.7547 32.0479C21.9787 31.9728 29.2614 29.0362 33.0827 27.4934C33.4674 27.3414 33.9087 27.3414 34.2934 27.4931C34.681 27.6459 34.9964 27.9454 35.1589 28.3143C35.322 28.6857 35.322 29.112 35.1589 29.4835C34.9967 29.8524 34.681 30.1519 34.2934 30.3047L18.2667 36.7463C16.9171 37.2862 15.4033 37.2449 14.1131 36.6345L7.3396 33.5084C7.24255 33.4653 7.14022 33.445 7.04 33.445C6.78505 33.445 6.54277 33.5768 6.4313 33.8033C6.35675 33.9543 6.34655 34.1234 6.40211 34.279C6.45943 34.4393 6.58075 34.5668 6.74251 34.6384L13.5205 37.7666C14.4225 38.1672 15.3663 38.3706 16.3232 38.3706C17.1675 38.3706 18.0315 38.2067 18.822 37.8973L34.8768 31.4827C35.5847 31.2096 36.1607 30.6548 36.46 29.96C36.7582 29.2662 36.749 28.5148 36.4339 27.8431Z" fill="#B62C34"/>
</g>
<path fill-rule="evenodd" clip-rule="evenodd" d="M24.226 18.0957C24.226 20.2198 22.504 21.9418 20.3798 21.9418C18.2557 21.9418 16.5337 20.2198 16.5337 18.0957C16.5337 15.9715 18.2557 14.2495 20.3798 14.2495C22.504 14.2495 24.226 15.9715 24.226 18.0957Z" fill="#B62C34"/>
</svg>
