<svg width="19" height="14" viewBox="0 0 15 11" fill="none" xmlns="http://www.w3.org/2000/svg">
<path d="M5.31755 10.7854C4.98925 10.7865 4.67415 10.6586 4.44257 10.4302L0.555304 6.61406C0.242514 6.30704 0.120355 5.85954 0.234844 5.44013C0.349333 5.02073 0.683076 4.69314 1.11035 4.58076C1.53763 4.46838 1.99353 4.58829 2.30632 4.89531L5.31914 7.8526L12.2171 1.07865C12.5299 0.77162 12.9858 0.651713 13.4131 0.764092C13.8403 0.876471 14.1741 1.20406 14.2886 1.62347C14.4031 2.04287 14.2809 2.49037 13.9681 2.7974L6.19306 10.4297C5.96137 10.6583 5.64609 10.7864 5.31755 10.7854Z" fill="white"/>
</svg>
