<svg id="Layer_1" data-name="Layer 1" xmlns="http://www.w3.org/2000/svg" viewBox="0 0 100 100"><defs><style>.cls-1{fill:#b42e34;}.cls-2{fill:#fff;}</style></defs><path class="cls-1" d="M100,50A50,50,0,1,1,50,0,50,50,0,0,1,100,50Z"/><path class="cls-2" d="M38.57,52.15h6.26c.26,0,.33.08.33.33q0,10,0,19.93a.37.37,0,0,1,0,.11h8.38s0-.06,0-.1q0-10,0-20c0-.24.08-.31.32-.31,2.09,0,4.17,0,6.26,0,.26,0,.36-.07.39-.32.13-1.07.27-2.13.41-3.2s.31-2.44.47-3.66c0-.29.07-.58.11-.93H53.83c-.22,0-.31-.05-.31-.29,0-1.85,0-3.7,0-5.55a4.77,4.77,0,0,1,.19-1.13,2.57,2.57,0,0,1,2.17-1.87,11.58,11.58,0,0,1,1.95-.17c1.2,0,2.41,0,3.62,0,.23,0,.29-.08.29-.3q0-3.33,0-6.65c0-.27-.11-.31-.34-.33A49.7,49.7,0,0,0,55,27.51a10.26,10.26,0,0,0-5.92,1.86,9.19,9.19,0,0,0-3.55,5.51,14.71,14.71,0,0,0-.36,3.5c0,1.78,0,3.55,0,5.33,0,.27-.07.35-.36.35H38.24c0,.13,0,.23,0,.32q0,3.74,0,7.45c0,.28.09.34.35.33"/></svg>