<svg id="Layer_1" data-name="Layer 1" xmlns="http://www.w3.org/2000/svg" viewBox="0 0 100 100"><defs><style>.cls-1{fill:#b42e34;}.cls-2{fill:#fff;}</style></defs><path class="cls-1" d="M100,50A50,50,0,1,1,50,0,50,50,0,0,1,100,50Z"/><path class="cls-2" d="M50,70.11,42.75,70a19.25,19.25,0,0,1-4.27-.46,10.33,10.33,0,0,1-8-7.82A16.31,16.31,0,0,1,30,58.16c-.18-4.76-.13-9.53-.07-14.3a30.92,30.92,0,0,1,.27-4.19,10.76,10.76,0,0,1,4.4-7.53A11.26,11.26,0,0,1,39,30.34,20.93,20.93,0,0,1,42.78,30c4.49-.13,9-.11,13.47,0,1.26,0,2.52.09,3.78.23A11,11,0,0,1,66.44,33a10.71,10.71,0,0,1,3.21,6A22.45,22.45,0,0,1,70,42.73c.13,4.48.1,9,0,13.45,0,1.28-.09,2.57-.24,3.84a10.75,10.75,0,0,1-3.9,7.41,11.09,11.09,0,0,1-5.1,2.25,32.12,32.12,0,0,1-5.46.36c-1.77,0-3.55,0-5.34,0v.06M33.58,50H33.5c0,2.44.08,4.89.13,7.33A15.66,15.66,0,0,0,34,60.65a6.92,6.92,0,0,0,2.6,4.14,7.89,7.89,0,0,0,3.35,1.34,21.38,21.38,0,0,0,3.57.27c4.66.08,9.31.11,14,0a15.61,15.61,0,0,0,3.2-.36,7,7,0,0,0,3.89-2.3,7.68,7.68,0,0,0,1.58-3.65,21.78,21.78,0,0,0,.27-3.61c.07-4.63.11-9.26,0-13.89A16.83,16.83,0,0,0,66,39.32a6.93,6.93,0,0,0-2.53-4.07,7.76,7.76,0,0,0-3.41-1.4,21.86,21.86,0,0,0-3.61-.27c-4.64-.07-9.27-.11-13.91,0a15.87,15.87,0,0,0-3.22.35,6.9,6.9,0,0,0-4.1,2.56,7.33,7.33,0,0,0-1.41,3.63,36.06,36.06,0,0,0-.24,3.6c0,2.07,0,4.14,0,6.22"/><path class="cls-2" d="M50,60.31A10.32,10.32,0,1,1,60.32,50,10.33,10.33,0,0,1,50,60.31m0-17A6.7,6.7,0,1,0,56.69,50,6.7,6.7,0,0,0,50,43.3"/><path class="cls-2" d="M60.72,36.87a2.41,2.41,0,1,1-2.41,2.4,2.41,2.41,0,0,1,2.41-2.4"/></svg>