<svg id="Layer_1" data-name="Layer 1" xmlns="http://www.w3.org/2000/svg" viewBox="0 0 100 100"><defs><style>.cls-1{fill:#b42e34;}.cls-2{fill:#fff;}</style></defs><path class="cls-1" d="M100,50A50,50,0,1,1,50,0,50,50,0,0,1,100,50Z"/><path class="cls-2" d="M32.54,62.63a32.83,32.83,0,0,0,3.84-.1,17,17,0,0,0,8.16-3.33,8.48,8.48,0,0,1-7.72-5.72,9.92,9.92,0,0,0,2.54.07c.19,0,.38-.06.57-.09s.19,0,.19-.14-.11-.12-.19-.15l-.5-.16a8.25,8.25,0,0,1-5.5-7.43v-.37a13.21,13.21,0,0,0,1.75.69,6.22,6.22,0,0,0,1.8.26c-.09-.23-.3-.31-.45-.43a8.12,8.12,0,0,1-2.21-9.87c.29-.61.29-.61.72-.12A23.53,23.53,0,0,0,50,43.61c.57.08,1.15.12,1.72.2.38,0,.48-.06.42-.46a8.13,8.13,0,0,1,4.4-8.69A8.39,8.39,0,0,1,66.07,36a.76.76,0,0,0,.79.22,20.47,20.47,0,0,0,2.42-.74,22,22,0,0,0,2.38-1.13,8.8,8.8,0,0,1-3.37,4.42,15.2,15.2,0,0,0,4.45-1.17,12.16,12.16,0,0,1-1.49,1.92,14.13,14.13,0,0,1-2.18,2,.89.89,0,0,0-.42.82A23.51,23.51,0,0,1,61.31,60a21.81,21.81,0,0,1-12.27,6,23.91,23.91,0,0,1-16.1-3c-.15-.08-.34-.11-.4-.31Z"/></svg>