<svg id="Layer_1" data-name="Layer 1" xmlns="http://www.w3.org/2000/svg" viewBox="0 0 100 100"><defs><style>.cls-1{fill:#b42e34;}.cls-2{fill:#fff;}</style></defs><path class="cls-1" d="M100,50A50,50,0,1,1,50,0,50,50,0,0,1,100,50Z"/><path id="rect2989-7" class="cls-2" d="M39,27.82c.49,1.43,1,2.87,1.49,4.32A35.73,35.73,0,0,1,41.86,37v6.28h2.32V37L47,27.82H44.62L43,33.9l-1.64-6.08Zm11.12,3.8a2.85,2.85,0,0,0-2.43,1.19A4.43,4.43,0,0,0,47,35.53v4a4.45,4.45,0,0,0,.66,2.72,3.09,3.09,0,0,0,4.87,0,4.5,4.5,0,0,0,.65-2.72v-4a4.5,4.5,0,0,0-.65-2.72,2.8,2.8,0,0,0-2.44-1.19Zm4.82.14v9.13a5.7,5.7,0,0,0,.19,1.72,1.28,1.28,0,0,0,1.34.86,3.38,3.38,0,0,0,2.4-1.42v1.27h2.09V31.76H58.82v8.82c-.47.66-.9,1-1.33,1s-.44-.17-.49-.49a4,4,0,0,1,0-.81v-8.5ZM50.07,33.5c.68,0,1,.53,1,1.6V40c0,1.07-.32,1.6-1,1.6s-1-.53-1-1.6V35.1C49.08,34,49.4,33.5,50.07,33.5Zm-.83,11.7a107.51,107.51,0,0,0-12.05.47A4.32,4.32,0,0,0,33.5,49a36.51,36.51,0,0,0-.61,8.1v.19a36,36,0,0,0,.59,7.91,4.32,4.32,0,0,0,3.7,3.36,107.61,107.61,0,0,0,12,.48h1.54a107.61,107.61,0,0,0,12-.48,4.35,4.35,0,0,0,3.7-3.36,36.16,36.16,0,0,0,.59-8v-.11a37.11,37.11,0,0,0-.59-8.1,4.33,4.33,0,0,0-3.7-3.37,107.61,107.61,0,0,0-12-.47H49.24ZM35.46,49.45h7.21v2.17H40.2V64.8H37.89V51.62H35.46Zm15.26,0H52.8v5a2.8,2.8,0,0,1,2.14-1.23,1.63,1.63,0,0,1,1.65,1.29,8.79,8.79,0,0,1,.2,2.29v4.55a9.74,9.74,0,0,1-.2,2.31,1.64,1.64,0,0,1-1.65,1.28,2.81,2.81,0,0,1-2.14-1.27v1.11H50.72V49.45Zm10.79,3.78A2.88,2.88,0,0,1,64,54.4a4.46,4.46,0,0,1,.64,2.7v2.36H60.46v2c0,1.06.34,1.59,1,1.59a.89.89,0,0,0,.93-.83c0-.11,0-.58,0-1.4H64.6v.31c0,.67,0,1.12,0,1.33a3,3,0,0,1-.48,1.23A2.86,2.86,0,0,1,61.58,65a2.91,2.91,0,0,1-2.5-1.17,4.4,4.4,0,0,1-.66-2.68v-4a4.47,4.47,0,0,1,.63-2.7,2.93,2.93,0,0,1,2.46-1.16ZM43,53.36H45v8.41a4,4,0,0,0,0,.8c0,.32.2.47.49.47s.85-.31,1.31-1V53.35h2.08V64.77H46.86V63.52a3.33,3.33,0,0,1-2.36,1.41,1.28,1.28,0,0,1-1.34-.86,6,6,0,0,1-.17-1.7l0-9Zm10.84,1.73a1.47,1.47,0,0,0-1,.5v7a1.48,1.48,0,0,0,1,.51c.6,0,.91-.51.91-1.54V56.65c0-1-.3-1.56-.91-1.56Zm7.69,0c-.7,0-1,.53-1,1.58v1.06h2.07V56.67C62.53,55.62,62.18,55.09,61.5,55.09Z"/></svg>