<?xml version="1.0" encoding="utf-8"?>
<!-- Generator: Adobe Illustrator 15.1.0, SVG Export Plug-In . SVG Version: 6.00 Build 0)  -->
<!DOCTYPE svg PUBLIC "-//W3C//DTD SVG 1.1//EN" "http://www.w3.org/Graphics/SVG/1.1/DTD/svg11.dtd">
<svg version="1.1" id="Layer_1" xmlns="http://www.w3.org/2000/svg" xmlns:xlink="http://www.w3.org/1999/xlink" x="0px" y="0px"
	 width="205px" height="205px" viewBox="0 0 205 205" enable-background="new 0 0 205 205" xml:space="preserve">
<rect fill="none" width="205" height="205"/>
<g>
	<path stroke="#453135" stroke-width="3.0988" stroke-miterlimit="10" d="M87.423,21.15c-1.811-2.899-4.938-4.63-8.359-4.63
		c-1.841,0-3.643,0.518-5.206,1.496c-1.265,0.793-2.345,1.875-3.13,3.132L21.819,98.934c-2.01,3.117-2.123,7.049-0.301,10.271
		c1.706,3.178,4.987,5.138,8.569,5.138h97.891h0.085c3.582,0,6.861-1.96,8.556-5.124c1.838-3.236,1.725-7.168-0.28-10.276
		L87.423,21.15z M133.956,107.739l-1.185,2.103l-0.12-0.462c-1.229,1.198-2.883,1.901-4.661,1.917H30.167
		c-2.529,0-4.814-1.375-5.986-3.579c-1.262-2.23-1.186-4.981,0.213-7.157l48.879-77.676c1.23-2.035,3.41-3.26,5.806-3.26
		c1.242,0,2.459,0.345,3.524,0.992c0.931,0.561,1.718,1.35,2.283,2.281l48.874,77.67
		C135.151,102.734,135.231,105.483,133.956,107.739z"/>
	<path stroke="#453135" stroke-width="1.1062" stroke-miterlimit="10" d="M60.705,92.793c0.43,0.937,1.603,1.403,2.563,0.963
		c4.362-2.636,9.512-4.068,14.757-4.068c5.246,0,10.39,1.432,14.883,4.136c0.86,0.517,2.121,0.199,2.649-0.682
		c0.258-0.448,0.316-0.971,0.182-1.472c-0.139-0.496-0.456-0.911-0.904-1.167C84.65,84.393,71.38,84.404,61.24,90.49
		C60.593,90.965,60.331,91.96,60.705,92.793z"/>
	<path stroke="#453135" stroke-width="0.8045" stroke-miterlimit="10" d="M65.978,68.191l1.312,1.359
		c0.534,0.527,1.465,0.524,1.995-0.013l0.315-0.313l0.025,0.002c0.117-0.213,0.173-0.452,0.157-0.696
		c-0.02-0.366-0.19-0.709-0.474-0.974l-1.372-1.322l1.363-1.316c0.539-0.541,0.539-1.439-0.015-1.991
		c-0.53-0.538-1.47-0.538-2.008,0l-1.299,1.345l-1.312-1.357c-0.506-0.512-1.456-0.525-1.992,0.013c-0.554,0.552-0.554,1.45,0,2.006
		l1.345,1.301l-1.357,1.308c-0.545,0.554-0.542,1.447,0.011,1.995c0.558,0.552,1.476,0.537,2.004,0.002L65.978,68.191z"/>
	<path stroke="#453135" stroke-width="0.8045" stroke-miterlimit="10" d="M87.152,69.538l1.299-1.345l1.316,1.355
		c0.538,0.529,1.461,0.526,1.99-0.011c0.562-0.563,0.562-1.456,0.007-2.001l-1.35-1.302l1.359-1.316
		c0.541-0.541,0.541-1.439-0.017-1.991c-0.524-0.538-1.468-0.538-2.001,0l-1.305,1.345l-1.31-1.357
		c-0.517-0.512-1.458-0.525-1.994,0.013c-0.271,0.266-0.415,0.623-0.415,1.002s0.144,0.734,0.415,1.004l1.347,1.301l-1.359,1.308
		c-0.549,0.554-0.54,1.447,0.012,1.995l0.044,0.045C85.732,70.083,86.636,70.063,87.152,69.538z"/>
	<path fill="#FFFFFF" stroke="#453135" stroke-width="6.1975" stroke-miterlimit="10" d="M178.462,129.736
		c-15.567,22.615-46.518,28.321-69.134,12.754c-22.612-15.567-28.32-46.516-12.758-69.13c15.571-22.614,46.518-28.326,69.137-12.758
		C188.319,76.174,194.026,107.12,178.462,129.736z"/>
	
		<line fill="none" stroke="#453135" stroke-width="13.4744" stroke-linecap="round" stroke-linejoin="round" stroke-miterlimit="10" x1="107.648" y1="144.399" x2="81.307" y2="184.157"/>
	<g>
		<defs>
			<path id="SVGID_1_" d="M184.201,118.625c-9.428,25.782-37.976,39.04-63.762,29.608c-25.782-9.431-39.035-37.979-29.607-63.76
				c9.429-25.784,37.97-39.042,63.764-29.611C180.378,64.297,193.633,92.838,184.201,118.625z"/>
		</defs>
		<clipPath id="SVGID_2_">
			<use xlink:href="#SVGID_1_"  overflow="visible"/>
		</clipPath>
		<path fill="#453135" clip-path="url(#SVGID_2_)" d="M159.961,74.064l-1.801-6.977l-5.098,1.315c-1.349-3.651-3.284-6.946-5.63-9.846l3.76-3.734
			l-5.08-5.11l-3.768,3.737c-2.791-2.283-5.907-4.124-9.257-5.461l1.45-5.105l-6.927-1.964l-1.45,5.089
			c-3.67-0.644-7.485-0.746-11.33-0.161l-1.315-5.102l-6.968,1.798l1.316,5.1c-3.652,1.349-6.946,3.283-9.854,5.63l-3.728-3.757
			l-5.116,5.073l3.743,3.77c-2.285,2.788-4.122,5.908-5.465,9.256l-5.098-1.45l-1.971,6.937l5.092,1.443
			c-0.641,3.667-0.743,7.478-0.162,11.322l-5.1,1.316l1.798,6.976l5.102-1.315c1.346,3.649,3.283,6.946,5.625,9.846l-3.757,3.73
			l5.077,5.117l3.768-3.739c2.792,2.273,5.911,4.118,9.259,5.459l-1.457,5.108l6.938,1.961l1.44-5.091
			c3.676,0.645,7.484,0.747,11.33,0.16l1.314,5.105l6.972-1.8l-1.315-5.102c3.655-1.349,6.949-3.28,9.857-5.627l3.724,3.753
			l5.116-5.068l-3.738-3.772c2.281-2.788,4.118-5.907,5.459-9.252l5.103,1.449l1.975-6.935l-5.099-1.447
			c0.646-3.67,0.751-7.478,0.164-11.321L159.961,74.064z M124.696,98.516c-9.88,2.545-19.96-3.398-22.507-13.285
			c-2.547-9.881,3.403-19.958,13.283-22.507c9.879-2.543,19.956,3.4,22.507,13.281C140.526,85.891,134.575,95.97,124.696,98.516z"/>
		<path fill="#453135" clip-path="url(#SVGID_2_)" d="M183.148,144.466l-1.552-6.024l-4.403,1.133c-1.162-3.147-2.831-5.994-4.856-8.498
			l3.242-3.221l-4.38-4.41l-3.254,3.222c-2.412-1.964-5.099-3.557-7.988-4.708l1.246-4.406l-5.98-1.694l-1.246,4.388
			c-3.17-0.554-6.464-0.642-9.772-0.139l-1.142-4.402l-6.017,1.554l1.137,4.401c-3.151,1.166-5.994,2.836-8.505,4.861l-3.214-3.243
			l-4.417,4.38l3.229,3.251c-1.976,2.405-3.561,5.102-4.716,7.987l-4.401-1.25l-1.703,5.988l4.396,1.246
			c-0.555,3.163-0.642,6.453-0.14,9.771l-4.405,1.133l1.552,6.024l4.403-1.135c1.166,3.149,2.834,5.995,4.86,8.499l-3.246,3.222
			l4.38,4.409l3.254-3.222c2.412,1.961,5.102,3.558,7.988,4.708l-1.254,4.41l5.988,1.698l1.241-4.398
			c3.171,0.558,6.462,0.645,9.782,0.142l1.137,4.402l6.016-1.553l-1.133-4.401c3.152-1.166,5.991-2.829,8.505-4.861l3.215,3.242
			l4.417-4.376l-3.229-3.254c1.968-2.405,3.553-5.095,4.712-7.988l4.405,1.253l1.702-5.986l-4.396-1.25
			c0.554-3.164,0.645-6.454,0.139-9.771L183.148,144.466z M152.712,165.568c-8.527,2.198-17.229-2.934-19.431-11.468
			c-2.196-8.524,2.938-17.223,11.465-19.423c8.523-2.194,17.233,2.938,19.431,11.464
			C166.378,154.672,161.236,163.372,152.712,165.568z"/>
	</g>
</g>
</svg>
