<?xml version="1.0" encoding="utf-8"?>
<!-- Generator: Adobe Illustrator 15.1.0, SVG Export Plug-In . SVG Version: 6.00 Build 0)  -->
<!DOCTYPE svg PUBLIC "-//W3C//DTD SVG 1.1//EN" "http://www.w3.org/Graphics/SVG/1.1/DTD/svg11.dtd">
<svg version="1.1" id="Layer_1" xmlns="http://www.w3.org/2000/svg" xmlns:xlink="http://www.w3.org/1999/xlink" x="0px" y="0px"
	 width="205px" height="205px" viewBox="0 0 205 205" enable-background="new 0 0 205 205" xml:space="preserve">
<g>
	<path fill="none" stroke="#453135" stroke-width="2.3067" stroke-miterlimit="10" d="M59.936,167.315
		c2.007-1.83,2.024-5.068-1.857-5.975c-2.016-0.471-2.587,0.469-3.406-1.631c-0.476-1.222,0.48-2.816-0.589-3.757
		c-0.628-0.555-3.129-0.163-3.871-0.041c-2.95,0.486-6.011,2.3-7.148,5.19c-0.826,2.097-2.723,7.447-0.756,9.299
		c1.71,1.604,5.204,1.59,7.356,1.367c-0.458,0.047-0.817-2.007-0.659-2.391C50.506,165.747,57.242,169.771,59.936,167.315z"/>
	<path fill="none" stroke="#453135" stroke-width="2.3067" stroke-miterlimit="10" d="M17.632,149.875
		c-2.628,3.136-9.513,3.199-12.739,0.131c-4.978-4.735,2.033-5.51,5.551-5.472c0.083,0,0.721-4.237,1.253-4.715
		c2.864-2.584,5.583,2.41,6.452,4.595C19.078,146.758,18.72,148.578,17.632,149.875z"/>
	<path fill="none" stroke="#453135" stroke-width="1.0971" stroke-miterlimit="10" d="M131.681,143.68
		c-1.252,1.492-4.525,1.523-6.06,0.063c-2.367-2.253,0.967-2.622,2.64-2.604c0.041,0,0.344-2.015,0.595-2.244
		c1.363-1.228,2.659,1.149,3.068,2.188C132.368,142.198,132.197,143.063,131.681,143.68z"/>
	<path fill="none" stroke="#453135" stroke-width="2.3067" stroke-miterlimit="10" d="M93.195,158.924
		c-5.246-7.418,6.201-13.36,5.974-7.121c6.861-0.574,6.741,8.404-0.663,7.569"/>
	
		<ellipse fill="none" stroke="#453135" stroke-width="4.637" stroke-miterlimit="10" cx="102.447" cy="97.088" rx="51.612" ry="63.626"/>
	<path fill="none" stroke="#453135" stroke-width="3.4601" stroke-miterlimit="10" d="M114.042,159.754l49.629-16.605
		c21.896-6.784,38.68-21.314,38.68-49.222c0-26.557-15.691-46.321-35.618-48.365l-47.423-9.215"/>
	
		<line fill="none" stroke="#453135" stroke-width="1.7683" stroke-miterlimit="10" x1="144.832" y1="59.413" x2="195.197" y2="66.141"/>
	
		<line fill="none" stroke="#453135" stroke-width="1.7683" stroke-miterlimit="10" x1="154.635" y1="94.014" x2="166.745" y2="93.016"/>
	
		<line fill="none" stroke="#453135" stroke-width="1.7683" stroke-miterlimit="10" x1="188.083" y1="90.055" x2="201.923" y2="88.247"/>
	
		<line fill="none" stroke="#453135" stroke-width="1.7683" stroke-miterlimit="10" x1="147.715" y1="129.574" x2="197.503" y2="115.352"/>
	<path fill="none" stroke="#453135" stroke-width="2.442" stroke-miterlimit="10" d="M201.464,92.169"/>
	<path fill="none" stroke="#453135" stroke-width="1.73" stroke-miterlimit="10" d="M143.246,139.774
		c-17.969-6.452-30.977-25.327-30.977-47.605c0-18.545,9.014-34.731,22.398-43.357"/>
	<path fill="none" stroke="#453135" stroke-width="2.0638" stroke-miterlimit="10" d="M187.884,90.176
		c1.267,16.12-6.397,28.486-11.934,27.188c-5.637-1.219-7.704-12.728-8.714-25.256c-0.813-12.552-0.252-23.719,5.066-25.988
		C177.486,63.823,186.652,74.047,187.884,90.176z"/>
</g>
<rect fill="none" width="205" height="205"/>
</svg>
