<?xml version="1.0" encoding="utf-8"?>
<!-- Generator: Adobe Illustrator 15.1.0, SVG Export Plug-In . SVG Version: 6.00 Build 0)  -->
<!DOCTYPE svg PUBLIC "-//W3C//DTD SVG 1.1//EN" "http://www.w3.org/Graphics/SVG/1.1/DTD/svg11.dtd">
<svg version="1.1" id="Layer_1" xmlns="http://www.w3.org/2000/svg" xmlns:xlink="http://www.w3.org/1999/xlink" x="0px" y="0px"
	 width="205px" height="205px" viewBox="0 0 205 205" enable-background="new 0 0 205 205" xml:space="preserve">
<rect fill="none" width="205" height="205"/>
<g>
	<rect fill="#453135" x="112.856" y="40.192" width="8.85" height="7.131"/>
	<rect fill="#453135" x="134.046" y="40.192" width="8.846" height="7.131"/>
	<path fill="#453135" d="M162.408,95.546l-0.491-0.233V75.239c0-3.122-1.236-6.053-3.484-8.251l-0.626-0.613l0.626-0.613
		c2.248-2.202,3.484-5.135,3.484-8.257v-27.5c0-6.382-5.196-11.574-11.576-11.574H32.38c-6.382,0-11.576,5.191-11.576,11.574v27.5
		c0,3.122,1.237,6.055,3.483,8.257l0.626,0.613l-0.626,0.613c-2.246,2.199-3.483,5.13-3.483,8.251v27.5
		c0,6.382,5.193,11.574,11.576,11.574h20.469v25.068H42.764v9.891H24.372v5.42h18.393v9.887h25.198v-9.887h18.39v-5.42h-18.39
		v-9.891h-9.693v-25.068h41.989l-0.723,1.279c-4.115,7.271-6.289,15.504-6.289,23.805c0,26.76,21.769,48.527,48.523,48.527
		c26.76,0,48.528-21.768,48.528-48.527C190.297,120.768,179.351,103.555,162.408,95.546z M25.651,57.872V29.64
		c0-3.472,2.777-6.295,6.19-6.295H150.88c3.413,0,6.189,2.823,6.189,6.295v28.232c0,3.474-2.776,6.301-6.189,6.301H31.841
		C28.428,64.173,25.651,61.346,25.651,57.872z M62.543,144.799v14.359H48.182v-14.359H62.543z M31.407,109.869
		c-3.394,0-6.156-2.762-6.156-6.158V75.239c0-3.393,2.762-6.154,6.156-6.154h119.908c3.393,0,6.156,2.761,6.156,6.154v17.938
		l-1.099-0.323c-4.24-1.241-9.696-1.983-14.604-1.983c-14.201,0-28.925,7.159-38.424,18.685l-0.256,0.313H31.407z M141.769,182.506
		c-23.768,0-43.105-19.338-43.105-43.109c0-23.768,19.337-43.105,43.105-43.105c23.772,0,43.108,19.338,43.108,43.105
		C184.877,163.168,165.541,182.506,141.769,182.506z"/>
	<path fill="#453135" d="M45.289,48.544c0,1.529-1.239,2.768-2.768,2.768l0,0c-1.527,0-2.767-1.239-2.767-2.768v-8.94
		c0-1.529,1.24-2.768,2.767-2.768l0,0c1.529,0,2.768,1.239,2.768,2.768V48.544z"/>
	<path fill="#453135" d="M62.35,48.544c0,1.529-1.24,2.768-2.767,2.768l0,0c-1.529,0-2.769-1.239-2.769-2.768v-8.94
		c0-1.529,1.239-2.768,2.769-2.768l0,0c1.527,0,2.767,1.239,2.767,2.768V48.544z"/>
	<path fill="#453135" d="M79.41,48.544c0,1.529-1.239,2.768-2.768,2.768l0,0c-1.527,0-2.767-1.239-2.767-2.768v-8.94
		c0-1.529,1.24-2.768,2.767-2.768l0,0c1.529,0,2.768,1.239,2.768,2.768V48.544z"/>
	<path fill="#453135" d="M45.289,93.302c0,1.529-1.239,2.768-2.768,2.768l0,0c-1.527,0-2.767-1.239-2.767-2.768v-8.94
		c0-1.529,1.24-2.768,2.767-2.768l0,0c1.529,0,2.768,1.239,2.768,2.768V93.302z"/>
	<path fill="#453135" d="M62.35,93.302c0,1.529-1.24,2.768-2.767,2.768l0,0c-1.529,0-2.769-1.239-2.769-2.768v-8.94
		c0-1.529,1.239-2.768,2.769-2.768l0,0c1.527,0,2.767,1.239,2.767,2.768V93.302z"/>
	<path fill="#453135" d="M79.41,93.302c0,1.529-1.239,2.768-2.768,2.768l0,0c-1.527,0-2.767-1.239-2.767-2.768v-8.94
		c0-1.529,1.24-2.768,2.767-2.768l0,0c1.529,0,2.768,1.239,2.768,2.768V93.302z"/>
	<g>
		
			<line fill="none" stroke="#453135" stroke-width="12.0147" stroke-linecap="round" stroke-linejoin="round" stroke-miterlimit="10" x1="122.616" y1="120.318" x2="161.909" y2="159.615"/>
		
			<line fill="none" stroke="#453135" stroke-width="12.0147" stroke-linecap="round" stroke-linejoin="round" stroke-miterlimit="10" x1="161.909" y1="120.318" x2="122.616" y2="159.615"/>
	</g>
</g>
</svg>
